<?xml version="1.0" encoding="utf-8"?>
<!-- Generator: Adobe Illustrator 24.1.2, SVG Export Plug-In . SVG Version: 6.00 Build 0)  -->
<svg version="1.1" id="Layer_1" xmlns="http://www.w3.org/2000/svg" xmlns:xlink="http://www.w3.org/1999/xlink" x="0px" y="0px"
	 viewBox="0 0 836.4 188.4" style="enable-background:new 0 0 836.4 188.4;" xml:space="preserve">
<style type="text/css">
	.st0{fill:none;}
	.st1{fill:url(#SVGID_1_);}
	.st2{fill:#163C65;}
	.st3{fill:url(#SVGID_2_);}
	.st4{fill:url(#SVGID_3_);}
	.st5{fill:url(#SVGID_4_);}
	.st6{fill:url(#SVGID_5_);}
	.st7{fill:url(#SVGID_6_);}
	.st8{fill:url(#SVGID_7_);}
	.st9{fill:url(#SVGID_8_);}
	.st10{fill:url(#SVGID_9_);}
	.st11{fill:url(#SVGID_10_);}
	.st12{fill:url(#SVGID_11_);}
	.st13{fill:url(#SVGID_12_);}
	.st14{fill:url(#SVGID_13_);}
	.st15{fill:url(#SVGID_14_);}
</style>
<path class="st0" d="M133.3,54.9l-0.4,0.4c-2.6-3.3-5.5-6.2-8.7-8.8l0.3-0.3c0.1,0.1,0.2,0.2,0.3,0.2c0.8,0.6,1.6,1.3,2.3,2l0,0
	l3.7,3.7l0,0c0.7,0.8,1.4,1.6,2.1,2.4C133.1,54.7,133.2,54.8,133.3,54.9L133.3,54.9z"/>
<linearGradient id="SVGID_1_" gradientUnits="userSpaceOnUse" x1="46.577" y1="1410.0985" x2="132.9171" y2="1410.0985" gradientTransform="matrix(1 0 0 1 0 -1319.0142)">
	<stop  offset="0" style="stop-color:#38F9D7"/>
	<stop  offset="1" style="stop-color:#43E97B"/>
</linearGradient>
<path class="st1" d="M132.9,55.3l-24.6,24.6l-1,1.1l-2.6,2.6L89.8,98.5l-6.2-6.2L81,89.7l-9.8-9.8l-7.7-7.7l-1.1-1.1l-3.6-3.6v68.3
	c-1.3-0.9-2.6-1.8-3.8-2.8c-0.1-0.1-0.1-0.1-0.2-0.1c-3.1-2.5-5.9-5.3-8.4-8.4V54.7c0.7-0.8,1.4-1.6,2.1-2.5l0.1-0.1l3.6-3.6l0,0
	l0.1-0.1c0.6-0.5,1.2-1.1,1.9-1.6l0,0c0.1-0.1,0.3-0.2,0.4-0.4h0.5l3.6,3.6l12.4,12.4l1.1,1l7.7,7.7l3.6,3.6l6.2,6.2l6.2-6.2
	l2.6-2.5l1.1-1.1l24.6-24.6C127.4,49.1,130.3,52,132.9,55.3L132.9,55.3z"/>
<path class="st2" d="M130.7,73.6l-35,35l-5.8,5.8l47.5-47.5L130.7,73.6z M85.4,118.9l-1.4,1.4l-2.4,2.4l8.3-8.3L85.4,118.9z"/>
<linearGradient id="SVGID_2_" gradientUnits="userSpaceOnUse" x1="196.2255" y1="1413.5486" x2="280.8255" y2="1413.5486" gradientTransform="matrix(1 0 0 1 0 -1319.0142)">
	<stop  offset="0" style="stop-color:#1E293B"/>
	<stop  offset="1" style="stop-color:#0F172A"/>
</linearGradient>
<path class="st3" d="M280.8,51.3v86.4h-16.9v-56l-24.4,40.1l-2,0.1L213.2,82v55.8h-17V51.4h17.5l24.8,40.8l24.7-40.8L280.8,51.3
	L280.8,51.3z"/>
<linearGradient id="SVGID_3_" gradientUnits="userSpaceOnUse" x1="294.2524" y1="1412.2485" x2="313.8741" y2="1412.2485" gradientTransform="matrix(1 0 0 1 0 -1319.0142)">
	<stop  offset="0" style="stop-color:#1E293B"/>
	<stop  offset="1" style="stop-color:#0F172A"/>
</linearGradient>
<path class="st4" d="M304,68.5c-2.6,0-4.9-1-6.9-2.9c-1.9-1.9-2.9-4.2-2.9-6.9c0-2.6,1-4.9,2.9-6.9s4.2-3,6.9-3s5,1,7,3
	c1.9,2,2.9,4.3,2.9,6.9s-1,4.9-2.9,6.9C309.1,67.6,306.7,68.5,304,68.5z M296.1,137.7V76H312v61.7L296.1,137.7L296.1,137.7z"/>
<linearGradient id="SVGID_4_" gradientUnits="userSpaceOnUse" x1="323.3256" y1="1414.3486" x2="389.3255" y2="1414.3486" gradientTransform="matrix(1 0 0 1 0 -1319.0142)">
	<stop  offset="0" style="stop-color:#1E293B"/>
	<stop  offset="1" style="stop-color:#0F172A"/>
</linearGradient>
<path class="st5" d="M373.4,51.3h15.9v86.4h-15.9v-7.3c-4.7,6-11.4,9-20,9s-15.4-3.2-21.3-9.5c-5.9-6.3-8.8-14-8.8-23.1
	s2.9-16.9,8.8-23.1c5.9-6.3,13-9.5,21.3-9.5s15.3,3,20,9V51.3z M344,119.4c3.3,3.3,7.4,4.9,12.3,4.9s9-1.6,12.2-4.9
	c3.2-3.3,4.8-7.4,4.8-12.5s-1.6-9.3-4.8-12.5c-3.2-3.3-7.3-4.9-12.2-4.9s-9,1.6-12.3,4.9c-3.3,3.3-4.9,7.4-4.9,12.5
	S340.8,116.1,344,119.4z"/>
<linearGradient id="SVGID_5_" gradientUnits="userSpaceOnUse" x1="403.9096" y1="1425.1986" x2="438.588" y2="1425.1986" gradientTransform="matrix(1 0 0 1 0 -1319.0142)">
	<stop  offset="0" style="stop-color:#1E293B"/>
	<stop  offset="1" style="stop-color:#0F172A"/>
</linearGradient>
<path class="st6" d="M419.8,86.6c1.5-4,3.9-6.9,7.4-8.9c3.4-2,7.2-3,11.4-3v17.8c-4.9-0.6-9.2,0.4-13,3c-3.8,2.5-5.7,6.8-5.7,12.7
	v29.5H404V76h15.9L419.8,86.6L419.8,86.6z"/>
<linearGradient id="SVGID_6_" gradientUnits="userSpaceOnUse" x1="442.3255" y1="1425.6986" x2="508.3255" y2="1425.6986" gradientTransform="matrix(1 0 0 1 0 -1319.0142)">
	<stop  offset="0" style="stop-color:#1E293B"/>
	<stop  offset="1" style="stop-color:#0F172A"/>
</linearGradient>
<path class="st7" d="M492.4,75.9h15.9v61.7h-15.9v-7.3c-4.8,6-11.5,9-20.1,9s-15.3-3.2-21.2-9.5c-5.9-6.3-8.8-14-8.8-23.1
	s2.9-16.9,8.8-23.1c5.9-6.3,12.9-9.5,21.2-9.5c8.6,0,15.3,3,20.1,9C492.4,83.2,492.4,75.9,492.4,75.9z M463,119.3
	c3.2,3.3,7.3,4.9,12.2,4.9s9-1.6,12.3-4.9c3.3-3.3,4.9-7.4,4.9-12.5s-1.6-9.3-4.9-12.5c-3.3-3.3-7.4-4.9-12.3-4.9s-9,1.6-12.2,4.9
	c-3.2,3.3-4.8,7.4-4.8,12.5S459.8,116.1,463,119.3z"/>
<linearGradient id="SVGID_7_" gradientUnits="userSpaceOnUse" x1="522.7929" y1="1425.1986" x2="557.4713" y2="1425.1986" gradientTransform="matrix(1 0 0 1 0 -1319.0142)">
	<stop  offset="0" style="stop-color:#1E293B"/>
	<stop  offset="1" style="stop-color:#0F172A"/>
</linearGradient>
<path class="st8" d="M538.7,86.6c1.5-4,3.9-6.9,7.4-8.9c3.4-2,7.2-3,11.4-3v17.8c-4.9-0.6-9.2,0.4-13,3c-3.8,2.5-5.7,6.8-5.7,12.7
	v29.5h-15.9V76h15.9L538.7,86.6L538.7,86.6z"/>
<linearGradient id="SVGID_8_" gradientUnits="userSpaceOnUse" x1="569.9255" y1="1413.4985" x2="633.5158" y2="1413.4985" gradientTransform="matrix(1 0 0 1 0 -1319.0142)">
	<stop  offset="0" style="stop-color:#1E293B"/>
	<stop  offset="1" style="stop-color:#0F172A"/>
</linearGradient>
<path class="st9" d="M633.4,51.3v16.3h-23.3v70.1h-17V67.6h-23.2V51.3H633.4L633.4,51.3z"/>
<linearGradient id="SVGID_9_" gradientUnits="userSpaceOnUse" x1="627.8051" y1="1425.7986" x2="691.6195" y2="1425.7986" gradientTransform="matrix(1 0 0 1 0 -1319.0142)">
	<stop  offset="0" style="stop-color:#1E293B"/>
	<stop  offset="1" style="stop-color:#0F172A"/>
</linearGradient>
<path class="st10" d="M644.4,113.4c2.1,7.7,7.9,11.6,17.4,11.6c6.1,0,10.7-2.1,13.8-6.2l12.8,7.4c-6.1,8.8-15.1,13.2-26.9,13.2
	c-10.2,0-18.4-3.1-24.6-9.3c-6.2-6.2-9.3-14-9.3-23.3s3-17.1,9.1-23.3c6.1-6.2,13.9-9.3,23.4-9.3c9.1,0,16.5,3.1,22.4,9.4
	c5.9,6.3,8.8,14,8.8,23.2c0,2.1-0.2,4.2-0.6,6.6H644.4z M644.2,101h31.5c-0.9-4.2-2.8-7.3-5.6-9.4c-2.8-2.1-6.1-3.1-9.7-3.1
	c-4.3,0-7.8,1.1-10.6,3.3C647,94,645.1,97.1,644.2,101L644.2,101z"/>
<linearGradient id="SVGID_10_" gradientUnits="userSpaceOnUse" x1="699.0255" y1="1425.7986" x2="759.5083" y2="1425.7986" gradientTransform="matrix(1 0 0 1 0 -1319.0142)">
	<stop  offset="0" style="stop-color:#1E293B"/>
	<stop  offset="1" style="stop-color:#0F172A"/>
</linearGradient>
<path class="st11" d="M731.6,139.4c-9.3,0-17.1-3.1-23.3-9.4c-6.2-6.2-9.3-14-9.3-23.2s3.1-16.9,9.3-23.2c6.2-6.2,14-9.4,23.3-9.4
	c6,0,11.5,1.4,16.4,4.3c4.9,2.9,8.7,6.7,11.2,11.6l-13.7,8c-1.2-2.5-3.1-4.6-5.6-6.1s-5.3-2.2-8.5-2.2c-4.8,0-8.7,1.6-11.9,4.8
	s-4.7,7.2-4.7,12.2s1.6,8.9,4.7,12c3.1,3.2,7.1,4.8,11.9,4.8c3.2,0,6.1-0.7,8.6-2.2c2.5-1.4,4.4-3.4,5.6-6l13.8,7.9
	c-2.7,4.9-6.6,8.7-11.5,11.7C743,138,737.6,139.4,731.6,139.4L731.6,139.4z"/>
<linearGradient id="SVGID_11_" gradientUnits="userSpaceOnUse" x1="767.9255" y1="1413.3986" x2="825.5255" y2="1413.3986" gradientTransform="matrix(1 0 0 1 0 -1319.0142)">
	<stop  offset="0" style="stop-color:#1E293B"/>
	<stop  offset="1" style="stop-color:#0F172A"/>
</linearGradient>
<path class="st12" d="M802.2,74.2c6.7,0,12.3,2.3,16.7,6.8s6.6,10.8,6.6,18.8v37.9h-15.9v-36c0-4.1-1.1-7.3-3.3-9.5
	c-2.2-2.2-5.2-3.3-8.9-3.3c-4.1,0-7.4,1.3-9.9,3.8s-3.7,6.4-3.7,11.5v33.3h-15.9V51.1h15.9v31.6C787.7,77.1,793.8,74.2,802.2,74.2
	L802.2,74.2z"/>
<linearGradient id="SVGID_12_" gradientUnits="userSpaceOnUse" x1="45.0256" y1="1481.2485" x2="104.7955" y2="1481.2485" gradientTransform="matrix(1 0 0 1 0 -1319.0142)">
	<stop  offset="0" style="stop-color:#1E293B"/>
	<stop  offset="1" style="stop-color:#0F172A"/>
</linearGradient>
<path class="st13" d="M89.8,161.3c5.1,0,10.1-0.5,14.9-1.6v12.1c-4.8,0.9-9.8,1.3-14.9,1.3c-16.5,0-31.9-4.8-44.8-13l8.7-8.7
	C64.3,157.7,76.6,161.3,89.8,161.3L89.8,161.3z"/>
<linearGradient id="SVGID_13_" gradientUnits="userSpaceOnUse" x1="6.1255" y1="1397.5986" x2="152.1255" y2="1397.5986" gradientTransform="matrix(1 0 0 1 0 -1319.0142)">
	<stop  offset="0" style="stop-color:#1E293B"/>
	<stop  offset="1" style="stop-color:#0F172A"/>
</linearGradient>
<path class="st14" d="M152.1,33.4l-8.4,8.4c-13.2-14.9-32.4-24.3-53.8-24.3C50.2,17.5,18,49.7,18,89.3c0,21.4,9.4,40.7,24.3,53.9
	l-8.4,8.4C16.9,136.3,6.1,114,6.1,89.3c0-46.2,37.5-83.7,83.7-83.7C114.6,5.7,136.8,16.4,152.1,33.4z"/>
<linearGradient id="SVGID_14_" gradientUnits="userSpaceOnUse" x1="81.6255" y1="1425.0986" x2="173.6255" y2="1425.0986" gradientTransform="matrix(1 0 0 1 0 -1319.0142)">
	<stop  offset="0" style="stop-color:#1E293B"/>
	<stop  offset="1" style="stop-color:#0F172A"/>
</linearGradient>
<path class="st15" d="M173.6,89.4c0,24-10.1,45.7-26.3,60.9c-5,4.7-10.5,8.7-16.4,12.1c-3.7,2.1-7.7,3.9-11.7,5.4l-0.1-12.8v-53.3
	l-29.2,29.2l-8.3-8.3l8.3-8.3L139.2,65c0.1,0.2,0.2,0.4,0.3,0.6c1.8,3.7,3.1,7.6,4,11.6l-2,2l-10.7,10.7v58.4
	c18.7-13,31-34.6,31-59.1c0-13.2-3.5-25.5-9.8-36.2l8.7-8.6C168.8,57.6,173.6,72.9,173.6,89.4L173.6,89.4z"/>
</svg>
