<?xml version="1.0" encoding="utf-8"?>
<!-- Generator: Adobe Illustrator 24.1.2, SVG Export Plug-In . SVG Version: 6.00 Build 0)  -->
<svg version="1.1" id="Layer_1" xmlns="http://www.w3.org/2000/svg" xmlns:xlink="http://www.w3.org/1999/xlink" x="0px" y="0px"
	 viewBox="0 0 296.2 247.6" style="enable-background:new 0 0 296.2 247.6;" xml:space="preserve">
<style type="text/css">
	.st0{fill:none;}
	.st1{fill:url(#SVGID_1_);}
	.st2{fill:#163C65;}
	.st3{fill:url(#SVGID_2_);}
	.st4{fill:url(#SVGID_3_);}
	.st5{fill:url(#SVGID_4_);}
	.st6{fill:url(#SVGID_5_);}
	.st7{fill:url(#SVGID_6_);}
	.st8{fill:url(#SVGID_7_);}
	.st9{fill:url(#SVGID_8_);}
	.st10{fill:url(#SVGID_9_);}
	.st11{fill:url(#SVGID_10_);}
	.st12{fill:url(#SVGID_11_);}
	.st13{fill:url(#SVGID_12_);}
	.st14{fill:url(#SVGID_13_);}
	.st15{fill:url(#SVGID_14_);}
</style>
<path class="st0" d="M192.9,61.7l-0.4,0.4c-2.6-3.3-5.5-6.2-8.7-8.8l0.3-0.3c0.1,0.1,0.2,0.2,0.3,0.2c0.8,0.6,1.6,1.3,2.3,2l0,0
	l3.7,3.7l0,0c0.7,0.8,1.4,1.6,2.1,2.4C192.8,61.5,192.8,61.6,192.9,61.7L192.9,61.7z"/>
<linearGradient id="SVGID_1_" gradientUnits="userSpaceOnUse" x1="106.2153" y1="105.965" x2="192.5553" y2="105.965" gradientTransform="matrix(1 0 0 -1 0 203.89)">
	<stop  offset="0" style="stop-color:#38F9D7"/>
	<stop  offset="1" style="stop-color:#43E97B"/>
</linearGradient>
<path class="st1" d="M192.6,62.1L168,86.7l-1.1,1.1l-2.6,2.6l-14.9,14.9l-6.2-6.2l-2.6-2.6l-9.8-9.8l-7.7-7.7l-1.1-1.1l-3.6-3.6
	v68.3c-1.3-0.9-2.6-1.8-3.8-2.8c-0.1-0.1-0.1-0.1-0.2-0.1c-3.1-2.5-5.9-5.3-8.4-8.4V61.5c0.7-0.8,1.4-1.7,2.1-2.4l0.1-0.1l3.6-3.6
	c0,0,0,0,0,0l0.1-0.1c0.6-0.5,1.2-1.1,1.9-1.6c0,0,0,0,0,0c0.1-0.1,0.3-0.2,0.4-0.3h0.5l3.6,3.6l12.3,12.4l1.1,1.1l7.7,7.7l3.6,3.6
	l6.2,6.2l6.2-6.2l2.6-2.6l1.1-1.1l24.6-24.6C187.1,55.9,190,58.8,192.6,62.1L192.6,62.1z"/>
<path class="st2" d="M190.3,80.4l-35,35l-5.8,5.8l47.4-47.4L190.3,80.4z M145,125.7l-1.4,1.4l-2.4,2.4l8.3-8.3L145,125.7z"/>
<linearGradient id="SVGID_2_" gradientUnits="userSpaceOnUse" x1="8.5636" y1="-8.0579" x2="46.4185" y2="-8.0579" gradientTransform="matrix(1 0 0 -1 0 203.89)">
	<stop  offset="0" style="stop-color:#1E293B"/>
	<stop  offset="1" style="stop-color:#0F172A"/>
</linearGradient>
<path class="st3" d="M46.4,192.6v38.7h-7.6v-25.1l-10.9,17.9l-0.9,0l-10.9-17.9v25H8.6v-38.7h7.8l11.1,18.3l11-18.3H46.4L46.4,192.6
	z"/>
<linearGradient id="SVGID_3_" gradientUnits="userSpaceOnUse" x1="52.4398" y1="-7.5311" x2="61.2208" y2="-7.5311" gradientTransform="matrix(1 0 0 -1 0 203.89)">
	<stop  offset="0" style="stop-color:#1E293B"/>
	<stop  offset="1" style="stop-color:#0F172A"/>
</linearGradient>
<path class="st4" d="M56.8,200.3c-1.2,0-2.2-0.4-3.1-1.3c-0.9-0.9-1.3-1.9-1.3-3.1s0.4-2.2,1.3-3.1c0.9-0.9,1.9-1.3,3.1-1.3
	s2.3,0.4,3.1,1.3c0.9,0.9,1.3,1.9,1.3,3.1s-0.4,2.2-1.3,3.1S58,200.3,56.8,200.3z M53.3,231.3v-27.6h7.1v27.6H53.3z"/>
<linearGradient id="SVGID_4_" gradientUnits="userSpaceOnUse" x1="65.4213" y1="-8.445" x2="94.9827" y2="-8.445" gradientTransform="matrix(1 0 0 -1 0 203.89)">
	<stop  offset="0" style="stop-color:#1E293B"/>
	<stop  offset="1" style="stop-color:#0F172A"/>
</linearGradient>
<path class="st5" d="M87.9,192.6H95v38.7h-7.1V228c-2.1,2.7-5.1,4-9,4c-3.9,0-6.9-1.4-9.5-4.2c-2.6-2.8-3.9-6.3-3.9-10.4
	c0-4.1,1.3-7.5,3.9-10.4c2.6-2.8,5.8-4.2,9.5-4.2s6.9,1.3,9,4V192.6z M74.7,223.1c1.5,1.5,3.3,2.2,5.5,2.2c2.2,0,4-0.7,5.5-2.2
	c1.4-1.5,2.2-3.3,2.2-5.6c0-2.3-0.7-4.2-2.2-5.6c-1.4-1.5-3.3-2.2-5.5-2.2c-2.2,0-4,0.7-5.5,2.2c-1.5,1.5-2.2,3.3-2.2,5.6
	C72.6,219.8,73.3,221.6,74.7,223.1z"/>
<linearGradient id="SVGID_5_" gradientUnits="userSpaceOnUse" x1="101.5129" y1="-13.305" x2="117.0319" y2="-13.305" gradientTransform="matrix(1 0 0 -1 0 203.89)">
	<stop  offset="0" style="stop-color:#1E293B"/>
	<stop  offset="1" style="stop-color:#0F172A"/>
</linearGradient>
<path class="st6" d="M108.6,208.4c0.7-1.8,1.8-3.1,3.3-4c1.5-0.9,3.2-1.3,5.1-1.3v8c-2.2-0.3-4.1,0.2-5.8,1.3
	c-1.7,1.1-2.6,3-2.6,5.7v13.2h-7.1v-27.6h7.1L108.6,208.4L108.6,208.4z"/>
<linearGradient id="SVGID_6_" gradientUnits="userSpaceOnUse" x1="118.6877" y1="-13.581" x2="148.242" y2="-13.581" gradientTransform="matrix(1 0 0 -1 0 203.89)">
	<stop  offset="0" style="stop-color:#1E293B"/>
	<stop  offset="1" style="stop-color:#0F172A"/>
</linearGradient>
<path class="st7" d="M141.1,203.7h7.1v27.6h-7.1V228c-2.1,2.7-5.1,4-9,4s-6.8-1.4-9.5-4.2c-2.6-2.8-3.9-6.3-3.9-10.4
	c0-4.1,1.3-7.5,3.9-10.4c2.6-2.8,5.8-4.2,9.5-4.2c3.9,0,6.9,1.3,9,4C141.1,206.9,141.1,203.7,141.1,203.7z M128,223.1
	c1.4,1.5,3.3,2.2,5.5,2.2c2.2,0,4-0.7,5.5-2.2c1.5-1.5,2.2-3.3,2.2-5.6s-0.7-4.2-2.2-5.6c-1.5-1.5-3.3-2.2-5.5-2.2
	c-2.2,0-4,0.7-5.5,2.2c-1.4,1.5-2.2,3.3-2.2,5.6S126.5,221.6,128,223.1z"/>
<linearGradient id="SVGID_7_" gradientUnits="userSpaceOnUse" x1="154.7148" y1="-13.305" x2="170.2338" y2="-13.305" gradientTransform="matrix(1 0 0 -1 0 203.89)">
	<stop  offset="0" style="stop-color:#1E293B"/>
	<stop  offset="1" style="stop-color:#0F172A"/>
</linearGradient>
<path class="st8" d="M161.8,208.4c0.7-1.8,1.8-3.1,3.3-4c1.5-0.9,3.2-1.3,5.1-1.3v8c-2.2-0.3-4.1,0.2-5.8,1.3
	c-1.7,1.1-2.6,3-2.6,5.7v13.2h-7.1v-27.6h7.1L161.8,208.4L161.8,208.4z"/>
<linearGradient id="SVGID_8_" gradientUnits="userSpaceOnUse" x1="175.7891" y1="-8.0579" x2="204.2467" y2="-8.0579" gradientTransform="matrix(1 0 0 -1 0 203.89)">
	<stop  offset="0" style="stop-color:#1E293B"/>
	<stop  offset="1" style="stop-color:#0F172A"/>
</linearGradient>
<path class="st9" d="M204.2,192.6v7.3h-10.4v31.4h-7.6v-31.4h-10.4v-7.3H204.2L204.2,192.6z"/>
<linearGradient id="SVGID_9_" gradientUnits="userSpaceOnUse" x1="201.7092" y1="-13.581" x2="230.2671" y2="-13.581" gradientTransform="matrix(1 0 0 -1 0 203.89)">
	<stop  offset="0" style="stop-color:#1E293B"/>
	<stop  offset="1" style="stop-color:#0F172A"/>
</linearGradient>
<path class="st10" d="M209.2,220.4c1,3.5,3.6,5.2,7.8,5.2c2.7,0,4.8-0.9,6.2-2.8l5.7,3.3c-2.7,3.9-6.7,5.9-12,5.9
	c-4.6,0-8.2-1.4-11-4.1s-4.1-6.2-4.1-10.4s1.4-7.6,4.1-10.4c2.7-2.8,6.2-4.2,10.5-4.2c4.1,0,7.4,1.4,10,4.2
	c2.6,2.8,3.9,6.3,3.9,10.4c0,0.9-0.1,1.9-0.3,2.9H209.2z M209.1,214.9h14.1c-0.4-1.9-1.2-3.3-2.5-4.2c-1.3-0.9-2.7-1.4-4.3-1.4
	c-1.9,0-3.5,0.5-4.8,1.5S209.5,213.1,209.1,214.9L209.1,214.9z"/>
<linearGradient id="SVGID_10_" gradientUnits="userSpaceOnUse" x1="233.5787" y1="-13.581" x2="260.6456" y2="-13.581" gradientTransform="matrix(1 0 0 -1 0 203.89)">
	<stop  offset="0" style="stop-color:#1E293B"/>
	<stop  offset="1" style="stop-color:#0F172A"/>
</linearGradient>
<path class="st11" d="M248.2,232.1c-4.2,0-7.6-1.4-10.4-4.2c-2.8-2.8-4.2-6.3-4.2-10.4s1.4-7.6,4.2-10.4c2.8-2.8,6.3-4.2,10.4-4.2
	c2.7,0,5.1,0.6,7.3,1.9c2.2,1.3,3.9,3,5,5.2l-6.1,3.6c-0.6-1.1-1.4-2-2.5-2.7c-1.1-0.7-2.4-1-3.8-1c-2.1,0-3.9,0.7-5.3,2.1
	s-2.1,3.2-2.1,5.4c0,2.2,0.7,4,2.1,5.4c1.4,1.4,3.2,2.1,5.3,2.1c1.4,0,2.7-0.3,3.8-1c1.1-0.6,2-1.5,2.5-2.7l6.2,3.5
	c-1.2,2.2-2.9,3.9-5.1,5.2C253.3,231.4,250.8,232.1,248.2,232.1L248.2,232.1z"/>
<linearGradient id="SVGID_11_" gradientUnits="userSpaceOnUse" x1="264.4089" y1="-8.0579" x2="290.207" y2="-8.0579" gradientTransform="matrix(1 0 0 -1 0 203.89)">
	<stop  offset="0" style="stop-color:#1E293B"/>
	<stop  offset="1" style="stop-color:#0F172A"/>
</linearGradient>
<path class="st12" d="M279.8,202.9c3,0,5.5,1,7.5,3c2,2,3,4.8,3,8.4v17h-7.1v-16.1c0-1.8-0.5-3.2-1.5-4.2c-1-1-2.3-1.5-4-1.5
	c-1.8,0-3.3,0.6-4.4,1.7c-1.1,1.1-1.7,2.9-1.7,5.1v14.9h-7.1v-38.7h7.1v14.1C273.3,204.2,276,202.9,279.8,202.9L279.8,202.9z"/>
<linearGradient id="SVGID_12_" gradientUnits="userSpaceOnUse" x1="104.6753" y1="34.745" x2="164.4453" y2="34.745" gradientTransform="matrix(1 0 0 -1 0 203.89)">
	<stop  offset="0" style="stop-color:#1E293B"/>
	<stop  offset="1" style="stop-color:#0F172A"/>
</linearGradient>
<path class="st13" d="M149.5,168.1c5.1,0,10.1-0.5,14.9-1.6v12.1c-4.9,0.9-9.8,1.3-14.9,1.3c-16.5,0-31.9-4.8-44.8-13l8.7-8.7
	C124,164.5,136.3,168.1,149.5,168.1L149.5,168.1z"/>
<linearGradient id="SVGID_13_" gradientUnits="userSpaceOnUse" x1="65.7553" y1="118.39" x2="211.7553" y2="118.39" gradientTransform="matrix(1 0 0 -1 0 203.89)">
	<stop  offset="0" style="stop-color:#1E293B"/>
	<stop  offset="1" style="stop-color:#0F172A"/>
</linearGradient>
<path class="st14" d="M211.8,40.2l-8.4,8.4c-13.2-14.9-32.4-24.3-53.8-24.3c-39.7,0-71.8,32.2-71.8,71.8c0,21.4,9.4,40.7,24.3,53.9
	l-8.4,8.4c-17.1-15.3-27.8-37.6-27.8-62.3c0-46.2,37.5-83.7,83.7-83.7C174.2,12.5,196.4,23.2,211.8,40.2z"/>
<linearGradient id="SVGID_14_" gradientUnits="userSpaceOnUse" x1="141.2053" y1="90.825" x2="233.2253" y2="90.825" gradientTransform="matrix(1 0 0 -1 0 203.89)">
	<stop  offset="0" style="stop-color:#1E293B"/>
	<stop  offset="1" style="stop-color:#0F172A"/>
</linearGradient>
<path class="st15" d="M233.2,96.2c0,24-10.1,45.7-26.3,60.9c-4.9,4.7-10.4,8.7-16.4,12.1c-3.7,2.1-7.7,3.9-11.7,5.4l-0.1-12.8v-53.3
	l-29.2,29.2l-8.3-8.3l8.3-8.3L198.8,72c0.1,0.2,0.2,0.4,0.3,0.6c1.8,3.7,3.1,7.6,4,11.6l-2,2l-10.7,10.7v58.4
	c18.7-13,31-34.6,31-59.1c0-13.2-3.6-25.5-9.8-36.2l8.6-8.7C228.5,64.4,233.2,79.7,233.2,96.2L233.2,96.2z"/>
</svg>
